<svg xmlns="http://www.w3.org/2000/svg" width="6742" height="1184">
    <g fill="none" fill-rule="evenodd">
        <path fill="#198BCA" d="M0 295.996v295.997L194.526 408.3z"/>
        <path fill="#0B79B7" d="M194.526 408.3 0 591.993h194.526z"/>
        <path fill="#0D6394" d="m0 591.993 194.526 183.692V591.993z"/>
        <path fill="#0D4972" d="m0 888.009 194.526-112.324L0 591.993z"/>
        <path fill="#139DD9" d="M0 295.996 194.526 408.3 256.344 148z"/>
        <path fill="#9CD6EF" d="m256.344 148 256.348 76.612V0z"/>
        <path d="M774.643 151.234v.005z"/>
        <path fill="#0D4972" d="M512.692 0v224.612l261.951-73.378z"/>
        <path fill="#198BCA" d="M774.643 151.239 830.856 408.3l194.529-112.304z"/>
        <path fill="#139DD9" d="m830.856 408.3 194.529 183.693V295.996z"/>
        <path fill="#9CD6EF" d="M1025.385 888.009V591.993L830.856 775.685z"/>
        <path fill="#26B2E3" d="m194.526 408.3 159.083-91.842L256.344 148z"/>
        <path fill="#66C6EB" d="m256.344 148 97.265 168.458 159.083-91.846z"/>
        <path fill="#0D6394" d="m512.692 1183.982 261.951-151.227-261.951-73.374z"/>
        <path fill="#2AA9E1" d="M1025.385 888.009 830.856 775.685l-56.213 257.07z"/>
        <path fill="#198BCA" d="m671.78 867.526 102.863 165.229 56.213-257.07z"/>
        <path fill="#0D4972" d="m512.692 959.381 261.951 73.374L671.78 867.526z"/>
        <path fill="#0B79B7" d="m512.692 959.381-256.348 76.615 256.348 147.986z"/>
        <path fill="#66C6EB" d="m0 888.009 256.344 147.987-61.818-260.311z"/>
        <path fill="#139DD9" d="m194.526 775.685 61.818 260.311 97.265-168.47z"/>
        <path fill="#198BCA" d="m353.609 867.526-97.265 168.47 256.348-76.615z"/>
        <path fill="#26B2E3" d="M830.856 408.3v183.693h194.529z"/>
        <path fill="#66C6EB" d="M1025.385 591.993H830.856v183.692z"/>
        <path fill="#0D6394" d="m774.643 151.234-261.951 73.378 159.088 91.846 102.863-165.219z"/>
        <path fill="#0B79B7" d="M774.643 151.239 671.78 316.458 830.856 408.3z"/>
        <text font-family="Helvetica-Bold, Helvetica" font-size="800" font-weight="bold" fill="#4A4A4A">
<tspan x="1367" y="861">LuckyDraw</tspan>
</text>
        <text font-family="Helvetica-Bold, Helvetica" font-size="500" font-weight="bold" fill="#1D72FF">
<tspan x="5880" y="861">.me</tspan>
</text>
    </g>
</svg>
